<?xml version="1.0" standalone="no"?>
<!DOCTYPE svg PUBLIC "-//W3C//DTD SVG 20010904//EN"
 "http://www.w3.org/TR/2001/REC-SVG-20010904/DTD/svg10.dtd">
<svg version="1.0" xmlns="http://www.w3.org/2000/svg"
 width="512.000000pt" height="512.000000pt" viewBox="0 0 512.000000 512.000000"
 preserveAspectRatio="xMidYMid meet">
<metadata>
Created by potrace 1.14, written by Peter Selinger 2001-2017
</metadata>
<g transform="translate(0.000000,512.000000) scale(0.100000,-0.100000)"
fill="#000000" stroke="none">
<path d="M1794 4943 c-12 -10 -99 -152 -194 -315 l-174 -298 -21 38 c-154 263
-150 258 -195 268 -44 11 -72 -18 -141 -141 -9 -16 -47 -82 -84 -145 -38 -63
-91 -155 -119 -203 -28 -49 -56 -96 -61 -105 -6 -9 -21 -35 -33 -57 -12 -22
-32 -56 -43 -75 -176 -295 -184 -314 -147 -362 15 -21 26 -23 132 -26 l115 -4
-216 -433 c-203 -406 -216 -435 -207 -466 14 -50 41 -59 188 -59 107 0 127 -2
123 -14 -3 -8 -128 -198 -278 -423 -292 -437 -300 -453 -255 -499 18 -18 41
-19 313 -24 l293 -5 -115 -144 -116 -145 3 -312 c3 -285 5 -315 21 -331 16
-16 46 -18 320 -21 l302 -3 1 -87 c0 -76 4 -96 31 -154 70 -148 204 -236 364
-236 81 0 150 21 216 65 69 46 109 93 146 172 27 57 31 77 31 153 l1 88 645 0
645 0 1 -89 c0 -83 3 -96 37 -165 121 -245 440 -301 632 -111 89 88 125 179
121 300 l-2 65 296 0 c264 0 297 2 317 18 25 20 83 208 157 512 91 374 115
528 111 695 -4 133 -8 156 -46 265 -74 215 -252 413 -454 505 -99 46 -169 65
-290 80 -16 2 -417 4 -890 5 l-860 0 -53 80 -52 80 132 1 c73 1 136 1 139 1
17 -3 59 50 59 73 0 14 -97 219 -215 455 l-215 430 106 0 c58 0 113 4 123 10
10 5 24 23 31 39 15 38 5 72 -45 147 -19 29 -35 55 -35 57 0 3 -34 63 -76 133
-42 71 -87 147 -99 169 -12 22 -30 54 -41 72 -10 18 -72 123 -137 235 -65 112
-126 213 -135 226 -24 31 -80 38 -108 15z"/>
<path d="M4130 4934 c-111 -38 -176 -79 -261 -163 -82 -82 -115 -134 -155
-245 -44 -120 -40 -298 8 -421 44 -111 151 -240 251 -303 134 -83 217 -107
377 -106 122 0 185 13 290 61 158 72 334 268 315 352 -12 54 -28 60 -165 59
-136 -1 -194 13 -289 69 -198 116 -291 366 -212 574 26 66 26 90 4 118 -28 33
-78 35 -163 5z"/>
<path d="M2930 4713 c-38 -14 -50 -46 -50 -140 l0 -93 -95 0 c-81 0 -98 -3
-115 -20 -41 -41 -33 -112 15 -130 15 -6 64 -10 111 -10 l84 0 0 -87 c0 -99
12 -132 53 -146 74 -24 107 20 107 148 l0 85 85 0 c128 0 172 33 148 107 -14
41 -47 53 -145 53 l-88 0 0 83 c0 104 -6 124 -41 142 -29 16 -44 17 -69 8z"/>
<path d="M3485 3829 c-39 -22 -45 -40 -45 -136 l0 -93 -85 0 c-130 0 -176 -35
-145 -111 17 -40 44 -49 146 -49 l84 0 0 -85 c0 -106 15 -141 64 -150 40 -8
81 14 90 48 3 12 6 59 6 105 l0 82 93 0 c114 0 142 16 142 79 0 65 -19 75
-134 79 l-99 4 -4 99 c-2 71 -7 103 -18 113 -21 21 -71 29 -95 15z"/>
</g>
</svg>
